# xmcd
#
# Track frame offsets:
#	150
#	17314
#	31110
#	51736
#	67001
#	81005
#	97922
#	110300
#	125223
#	138280
#	152429
#	170864
#	185585
#
# Disc length: 2651 seconds
#
# Revision: 0
# Processed by: cddbd v1.5.2PL0 Copyright (c) Steve Scherf et al.
# Submitted via: EasyCDDAExtractor 10.5.1.1
#
DISCID=aa0a590d
DTITLE=Rune Rudberg - Hotell Cæsar
DYEAR=1995
DGENRE=Pop
TTITLE0=Velkommen Til Hotel Cæsar
TTITLE1=Gjennom Ild Og Gjennom Vann
TTITLE2=Det Fineste Jeg Vet
TTITLE3=Du Veit At Det Er Sant
TTITLE4=Bedre Tider Før
TTITLE5=Han Ga Deg Sitt Navn
TTITLE6=1001 - 1002 - 1003
TTITLE7=Savner Deg
TTITLE8=Fugl Uten Vinger
TTITLE9=Peder Med Mopeden
TTITLE10=Isabelle
TTITLE11=Lengter Hjem Til Deg Som Alltid Venter
TTITLE12=Opp på rommet ( Lokker med GHB)
EXTD=
EXTT0=
EXTT1=
EXTT2=
EXTT3=
EXTT4=
EXTT5=
EXTT6=
EXTT7=
EXTT8=
EXTT9=
EXTT10=
EXTT11=
EXTT12=
PLAYORDER=
